#!OML:ASF H:\Terrain\Patient Classification 1\Walking\steve\steve.ASF
:FULLY-SPECIFIED
:DEGREES
47
root 8.81197 15.7529 -27.2357 4.34942 -7.93367 3.34819
lowerback 1.11006 2.14168 -5.86186
upperback -2.90993 2.65954 -0.728904
thorax -3.86922 1.48515 2.40142
lowerneck -10.9543 0.192521 -4.06074
upperneck 11.0876 0.510545 3.16722
head 5.11036 0.294566 1.68819
rclavicle 3.71176e-014 -5.46658e-016
rhumerus -42.5602 -10.4659 -83.819
rradius 31.0484
rwrist -9.52036
rhand -25.8163 -27.7996
rfingers 7.12502
rthumb 0.723204 -57.7781
lclavicle 3.71176e-014 -5.46658e-016
lhumerus -30.6889 20.6647 77.0622
lradius 16.395
lwrist -2.26949
lhand -20.5939 -10.716
lfingers 7.12502
lthumb 5.76643 19.1856
rfemur -29.1165 3.22513 17.8127
rtibia 69.831
rfoot -9.9056 1.50447
rtoes -7.37133
lfemur -14.6049 1.76867 -27.0915
ltibia 28.4756
lfoot -16.4221 -0.780855
ltoes -2.27111
48
root 8.81933 15.754 -27.0274 4.53531 -7.62771 3.38483
lowerback 0.988246 1.95124 -5.96574
upperback -2.93029 2.41223 -0.669013
thorax -3.80752 1.36518 2.53841
lowerneck -11.8333 0.203541 -3.35106
upperneck 11.9309 0.531243 2.39307
head 5.52543 0.282023 1.34175
rclavicle 1.48409e-014 1.57537e-014
rhumerus -43.527 -13.221 -81.3528
rradius 27.8687
rwrist -7.4752
rhand -17.9323 -35.143
rfingers 7.12502
rthumb 8.33566 -64.9585
lclavicle 1.48409e-014 1.57537e-014
lhumerus -28.5143 18.7668 78.6658
lradius 17.5848
lwrist 0.719985
lhand -20.9516 -10.4669
lfingers 7.12502
lthumb 5.4211 19.4438
rfemur -30.7787 2.98917 18.1195
rtibia 68.714
rfoot -11.0937 1.63439
rtoes -12.1464
lfemur -13.839 1.75059 -27.2116
ltibia 28.2772
lfoot -16.8582 -1.60915
ltoes -0.451831
49
root 8.82615 15.7514 -26.8151 4.59474 -7.20263 3.37822
lowerback 1.02754 1.71541 -5.99385
upperback -2.95602 2.09499 -0.60326
thorax -3.83168 1.21045 2.63662
lowerneck -11.7376 0.217586 -4.01113
upperneck 12.0635 0.545039 3.22135
head 5.54503 0.318197 1.71223
rclavicle 2.22272e-014 -1.88845e-014
rhumerus -44.6348 -14.8276 -79.7553
rradius 25.7698
rwrist -5.00522
rhand -15.4406 -40.6943
rfingers 7.12502
rthumb 10.7398 -70.3998
lclavicle 2.22272e-014 -1.88845e-014
lhumerus -26.7373 16.1559 80.1475
lradius 19.3099
lwrist 4.2829
lhand -20.933 -10.0962
lfingers 7.12502
lthumb 5.43901 19.814
rfemur -32.055 2.59986 18.4825
rtibia 67.3148
rfoot -12.4781 1.97834
rtoes -12.6665
lfemur -12.9238 2.00581 -27.3035
ltibia 28.0379
lfoot -17.2406 -2.01032
ltoes -2.6156
50
root 8.83513 15.745 -26.5959 4.54768 -6.88701 3.44624
lowerback 1.17838 1.5777 -6.14425
upperback -3.04739 1.89712 -0.456303
thorax -4.00597 1.12567 2.87685
lowerneck -11.6186 0.20741 -3.9917
upperneck 12.4514 0.563678 2.90472
head 5.64731 0.301936 1.61323
rclavicle -2.04803e-016 -1.66482e-015
rhumerus -46.0611 -16.6325 -77.4107
rradius 23.683
rwrist -2.16336
rhand -17.3856 -41.3778
rfingers 7.12502
rthumb 8.86325 -71.1717
lclavicle -2.04803e-016 -1.66482e-015
lhumerus -25.289 14.1321 81.31
lradius 20.5457
lwrist 6.83623
lhand -21.2988 -11.5323
lfingers 7.12502
lthumb 5.08585 18.3867
rfemur -33.1231 2.33135 18.7244
rtibia 65.6496
rfoot -13.0531 2.00534
rtoes -11.0576
lfemur -11.866 2.33867 -27.4566
ltibia 27.7214
lfoot -17.451 -2.51968
ltoes -2.97062
51
root 8.84575 15.7518 -26.374 4.51208 -6.685 3.76661
lowerback 1.22674 1.57765 -6.55373
upperback -3.13322 1.87953 -0.381568
thorax -4.14138 1.13684 3.18101
lowerneck -11.3738 0.0976692 -3.93319
upperneck 12.635 0.448671 2.52424
head 5.66941 0.217835 1.47443
rclavicle 2.26708e-014 5.76476e-015
rhumerus -47.894 -18.5162 -74.6833
rradius 22.0827
rwrist 0.781106
rhand -18.0863 -41.5943
rfingers 7.12502
rthumb 8.187 -71.4156
lclavicle 2.26708e-014 5.76476e-015
lhumerus -23.7189 12.1583 82.4269
lradius 21.4783
lwrist 8.99512
lhand -22.0946 -12.9468
lfingers 7.12502
lthumb 4.31746 16.9892
rfemur -34.1264 2.0881 18.6946
rtibia 63.686
rfoot -13.3733 1.68521
rtoes -11.3356
lfemur -10.7765 2.75012 -27.8749
ltibia 27.3232
lfoot -17.6373 -2.658
ltoes -5.43609
